<svg width="512" height="512" viewBox="0 0 512 512" fill="none" xmlns="http://www.w3.org/2000/svg">
  <defs>
    <linearGradient id="okami-gradient" x1="0%" y1="0%" x2="100%" y2="100%">
      <stop offset="0%" style="stop-color:#0ea5e9;stop-opacity:1" />
      <stop offset="50%" style="stop-color:#0284c7;stop-opacity:1" />
      <stop offset="100%" style="stop-color:#0369a1;stop-opacity:1" />
    </linearGradient>
    <filter id="glow">
      <feGaussianBlur stdDeviation="4" result="coloredBlur"/>
      <feMerge>
        <feMergeNode in="coloredBlur"/>
        <feMergeNode in="SourceGraphic"/>
      </feMerge>
    </filter>
  </defs>
  
  <!-- Background circle -->
  <circle cx="256" cy="256" r="240" fill="#0f172a" stroke="url(#okami-gradient)" stroke-width="2" opacity="0.9"/>
  
  <!-- Wolf silhouette (stylized) -->
  <path d="M256 120 C200 120 160 160 160 220 C160 250 170 275 185 295 L190 340 C190 360 210 380 235 380 L277 380 C302 380 322 360 322 340 L327 295 C342 275 352 250 352 220 C352 160 312 120 256 120 Z" fill="url(#okami-gradient)" filter="url(#glow)"/>
  
  <!-- Eyes -->
  <circle cx="220" cy="200" r="8" fill="#ffffff" opacity="0.9"/>
  <circle cx="292" cy="200" r="8" fill="#ffffff" opacity="0.9"/>
  
  <!-- Neural network connections -->
  <g opacity="0.3">
    <line x1="256" y1="256" x2="150" y2="150" stroke="url(#okami-gradient)" stroke-width="1"/>
    <line x1="256" y1="256" x2="362" y2="150" stroke="url(#okami-gradient)" stroke-width="1"/>
    <line x1="256" y1="256" x2="150" y2="362" stroke="url(#okami-gradient)" stroke-width="1"/>
    <line x1="256" y1="256" x2="362" y2="362" stroke="url(#okami-gradient)" stroke-width="1"/>
    
    <circle cx="150" cy="150" r="4" fill="#0ea5e9"/>
    <circle cx="362" cy="150" r="4" fill="#0ea5e9"/>
    <circle cx="150" cy="362" r="4" fill="#0ea5e9"/>
    <circle cx="362" cy="362" r="4" fill="#0ea5e9"/>
  </g>
</svg>