<svg xmlns="http://www.w3.org/2000/svg" fill="none" viewBox="0 0 394 80">
<path fill="#000" d="M262 0h68.5v12.7h-27.2v66.6h-13.6V12.7H262V0ZM149.6 0v12.7H94v20.4h44.3v12.6H94v21h55.5v12.6H80.5V0h69.1Zm34.3 0h-17.8l63.8 79.4h17.9l-32-39.7 32-39.6h-17.9l-23 28.6-23-28.6Zm18.3 56.7-9-11-27.1 33.7h17.8l18.3-22.7Z"/>
<path fill="#000" d="M81 79.3 17 0H0v79.3h13.6V17l50.2 62.3H81Zm252.6-.4c-1 0-1.8-.2-2.5-.7a4.4 4.4 0 0 1-1.7-1.9 5 5 0 0 1-.6-2.4c0-.9.2-1.6.6-2.2a4 4 0 0 1 1.7-1.9c.7-.5 1.5-.7 2.5-.7.9 0 1.6.2 2.2.6.6.4 1.1 1 1.5 1.6l1.3-1.3a5.6 5.6 0 0 0-1.2-1.4 5 5 0 0 0-1.6-.8 6.2 6.2 0 0 0-1.9-.3c-1.3 0-2.4.3-3.3 1a5.5 5.5 0 0 0-2.2 2.8 6.8 6.8 0 0 0-.8 3.3c0 1.3.3 2.4.8 3.3a5.7 5.7 0 0 0 2.2 2.7c.9.7 2 1 3.3 1 1.3 0 2.4-.3 3.3-1a5.5 5.5 0 0 0 2.1-2.7c.5-.9.8-2 .8-3.3 0-.4 0-.8-.1-1.2h-5.6v-1.8h7.4c0 .3.1.7.1 1.1 0 1.4-.2 2.6-.7 3.7a6.2 6.2 0 0 1-2 2.6c-.9.6-1.9 1-3.1 1.3-1.2.3-2.5.4-3.9.4Zm23.2-33.5h-2.8l-6.5 20.6h2.4l1.4-4.5h6.8l1.4 4.5h2.4l-6.5-20.6Zm-2.9 13.7 2.3-7.2 2.3 7.2h-4.6Zm12.2-13.7h-2.3v20.6h2.3V56.1Zm8.9 13.7c-.9 0-1.7-.2-2.3-.6a4 4 0 0 1-1.5-1.7 5 5 0 0 1-.5-2.3c0-.9.2-1.6.5-2.2.3-.6.8-1.1 1.5-1.5.7-.4 1.4-.6 2.3-.6.8 0 1.5.2 2.1.5.6.4 1.1.9 1.4 1.5l1.3-1.2a5.6 5.6 0 0 0-1.1-1.4 4.8 4.8 0 0 0-1.5-.8 5.8 5.8 0 0 0-1.8-.3c-1.2 0-2.2.3-3 1a5.2 5.2 0 0 0-2 2.6 6.4 6.4 0 0 0-.7 3.2c0 1.2.2 2.3.7 3.2a5.2 5.2 0 0 0 2 2.6c.8.7 1.8 1 3 1 1.2 0 2.2-.3 3-1a5.2 5.2 0 0 0 2-2.6c.5-.9.7-2 .7-3.2 0-.4 0-.7-.1-1.1h-5.2v-1.6h6.9c0 .3.1.6.1 1 0 1.3-.2 2.4-.6 3.4a5.8 5.8 0 0 1-1.9 2.4c-.8.6-1.8 1-2.9 1.3-1.1.2-2.3.4-3.6.4Zm21.9-13.7h-2.3v20.6h2.3V56.1Zm8.9 13.7c-.9 0-1.7-.2-2.3-.6a4 4 0 0 1-1.5-1.7 5 5 0 0 1-.5-2.3c0-.9.2-1.6.5-2.2.3-.6.8-1.1 1.5-1.5.7-.4 1.4-.6 2.3-.6.8 0 1.5.2 2.1.5.6.4 1.1.9 1.4 1.5l1.3-1.2a5.6 5.6 0 0 0-1.1-1.4 4.8 4.8 0 0 0-1.5-.8 5.8 5.8 0 0 0-1.8-.3c-1.2 0-2.2.3-3 1a5.2 5.2 0 0 0-2 2.6 6.4 6.4 0 0 0-.7 3.2c0 1.2.2 2.3.7 3.2a5.2 5.2 0 0 0 2 2.6c.8.7 1.8 1 3 1 1.2 0 2.2-.3 3-1a5.2 5.2 0 0 0 2-2.6c.5-.9.7-2 .7-3.2 0-.4 0-.7-.1-1.1h-5.2v-1.6h6.9c0 .3.1.6.1 1 0 1.3-.2 2.4-.6 3.4a5.8 5.8 0 0 1-1.9 2.4c-.8.6-1.8 1-2.9 1.3-1.1.2-2.3.4-3.6.4Z"/>
</svg> 