<?xml version="1.0" standalone="no"?>
<!DOCTYPE svg PUBLIC "-//W3C//DTD SVG 20010904//EN"
 "http://www.w3.org/TR/2001/REC-SVG-20010904/DTD/svg10.dtd">
<svg version="1.0" xmlns="http://www.w3.org/2000/svg"
 width="888.000000pt" height="888.000000pt" viewBox="0 0 888.000000 888.000000"
 preserveAspectRatio="xMidYMid meet">

<g transform="translate(0.000000,888.000000) scale(0.100000,-0.100000)"
fill="#000000" stroke="none">
<path d="M4240 8584 c-380 -35 -735 -161 -1065 -378 -337 -222 -730 -617
-1040 -1046 -497 -687 -876 -1638 -1009 -2531 -43 -288 -50 -383 -50 -714 -1
-411 26 -651 110 -978 211 -822 692 -1509 1364 -1950 475 -311 1048 -505 1600
-541 216 -15 270 -15 447 -6 664 35 1228 214 1743 555 340 225 664 548 890
885 214 320 394 742 484 1130 110 480 129 997 55 1545 -93 689 -316 1377 -658
2025 -179 338 -347 588 -581 866 -570 676 -1113 1020 -1765 1119 -98 15 -435
27 -525 19z m395 -364 c499 -56 1014 -319 1420 -725 321 -321 612 -740 864
-1245 115 -231 140 -290 238 -560 250 -685 376 -1451 334 -2025 -21 -283 -56
-485 -127 -735 -105 -365 -214 -596 -453 -960 -62 -94 -108 -148 -256 -295
-304 -304 -522 -466 -830 -614 -410 -198 -811 -292 -1305 -308 -551 -17 -1022
89 -1520 343 -358 182 -748 503 -977 804 -188 248 -384 642 -497 1000 -44 139
-110 461 -128 625 -22 211 -17 623 12 840 143 1078 550 2072 1164 2840 108
135 417 441 546 541 356 275 694 424 1076 473 97 12 332 13 439 1z"/>
<path d="M2676 6508 c-58 -43 -56 -10 -56 -966 l0 -879 -30 -66 c-49 -108 -80
-232 -100 -402 -40 -331 -21 -500 96 -840 25 -71 51 -136 58 -145 8 -8 26 -40
41 -70 15 -30 51 -89 80 -130 28 -41 73 -106 100 -145 93 -136 295 -323 475
-441 329 -215 675 -314 1095 -314 194 0 293 11 492 56 429 95 758 299 1045
646 203 245 330 479 387 713 41 167 54 298 48 500 -6 220 -22 311 -88 491
l-43 119 3 885 c3 677 1 894 -8 922 -18 56 -62 88 -120 88 -27 0 -57 -7 -71
-17 -14 -9 -117 -99 -230 -198 -113 -100 -312 -274 -442 -387 l-238 -206 -42
13 c-24 8 -85 28 -137 45 -171 56 -298 73 -551 73 -168 0 -249 -4 -320 -17
-116 -21 -205 -43 -245 -61 -16 -8 -54 -23 -84 -35 l-54 -21 -26 24 c-30 27
-203 178 -451 392 -96 83 -231 200 -300 261 -69 61 -136 116 -147 123 -35 18
-105 13 -137 -11z m567 -706 c125 -107 227 -197 227 -202 0 -5 -16 -14 -36
-20 -45 -15 -171 -100 -289 -195 -88 -72 -158 -140 -223 -220 l-32 -40 0 488
0 489 63 -54 c35 -29 166 -140 290 -246z m2767 -202 l0 -501 -75 90 c-109 129
-222 231 -368 329 l-128 86 23 22 c36 35 540 474 544 474 2 0 4 -225 4 -500z
m-1302 -21 c282 -47 466 -118 709 -271 175 -111 404 -352 508 -538 178 -315
257 -642 226 -933 -40 -369 -196 -683 -481 -967 -239 -239 -469 -373 -775
-450 -500 -127 -1008 -43 -1425 235 -356 237 -625 619 -704 1001 -8 39 -21
130 -27 201 -31 330 65 685 268 992 74 111 296 334 423 424 248 175 566 293
890 331 66 8 275 -6 388 -25z"/>
<path d="M3605 4326 c-17 -7 -44 -29 -62 -49 -88 -100 -61 -252 57 -315 38
-20 55 -23 109 -19 79 6 136 42 169 107 51 102 1 241 -101 279 -39 15 -135 13
-172 -3z"/>
<path d="M5092 4319 c-116 -58 -138 -235 -40 -326 60 -56 164 -69 239 -30 134
71 138 274 5 352 -56 33 -142 35 -204 4z"/>
</g>
</svg>
